<?xml version="1.0" encoding="utf-8"?>
<!-- Generator: Adobe Illustrator 19.1.0, SVG Export Plug-In . SVG Version: 6.00 Build 0)  -->
<svg version="1.1" xmlns="http://www.w3.org/2000/svg" xmlns:xlink="http://www.w3.org/1999/xlink" x="0px" y="0px"
	 viewBox="803 -11.5 30 30" enable-background="new 803 -11.5 30 30" xml:space="preserve">
<g id="Layer_1">
</g>
<g id="圖層_2">
	<rect x="783" y="-36.8" fill="#F1E0C5" width="70" height="85.5"/>
	<g transform="translate(208, 144)">
		<path fill="none" stroke="#DA667A" stroke-width="2" stroke-linecap="round" stroke-linejoin="round" stroke-miterlimit="10" d="
			M613.5-142.6v11.1c0,0.8,0.6,1.4,1.4,1.4l0,0c0.8,0,1.4-0.6,1.4-1.4v-11.1"/>
		<path fill="none" stroke="#DA667A" stroke-width="2" stroke-linecap="round" stroke-linejoin="round" stroke-miterlimit="10" d="
			M618.3-150.9v6.9c0,0.8-0.6,1.4-1.4,1.4h-4.2c-0.8,0-1.4-0.6-1.4-1.4v-6.9"/>
		
			<line fill="none" stroke="#DA667A" stroke-width="2" stroke-linecap="round" stroke-linejoin="round" stroke-miterlimit="10" x1="614.8" y1="-150.9" x2="614.8" y2="-146"/>
		
			<line fill="none" stroke="#DA667A" stroke-width="2" stroke-linecap="round" stroke-linejoin="round" stroke-miterlimit="10" x1="611.4" y1="-146" x2="618.3" y2="-146"/>
		<path fill="none" stroke="#342A20" stroke-width="2" stroke-linecap="round" stroke-linejoin="round" stroke-miterlimit="10" d="
			M603.8-142.9v11.4c0,0.8,0.6,1.4,1.4,1.4l0,0c0.8,0,1.4-0.6,1.4-1.4v-11.4"/>
		<path fill="none" stroke="#342A20" stroke-width="2" stroke-linecap="round" stroke-linejoin="round" stroke-miterlimit="10" d="
			M605.2-142.6L605.2-142.6c-1.9,0-3.5-1.5-3.5-3.5v-1.4c0-1.9,1.5-3.5,3.5-3.5l0,0c1.9,0,3.5,1.5,3.5,3.5v1.4
			C608.6-144.1,607.1-142.6,605.2-142.6z"/>
	</g>
</g>
</svg>
